<?xml version="1.0" standalone="no"?>
<!DOCTYPE svg PUBLIC "-//W3C//DTD SVG 20010904//EN"
 "http://www.w3.org/TR/2001/REC-SVG-20010904/DTD/svg10.dtd">
<svg version="1.0" xmlns="http://www.w3.org/2000/svg"
 width="512.000000pt" height="512.000000pt" viewBox="0 0 512.000000 512.000000"
 preserveAspectRatio="xMidYMid meet">
<metadata>
Created by potrace 1.14, written by Peter Selinger 2001-2017
</metadata>
<g transform="translate(0.000000,512.000000) scale(0.100000,-0.100000)"
fill="#000000" stroke="none">
<path d="M3968 4865 c-2 -2 -41 -5 -88 -8 -142 -9 -262 -50 -393 -133 -58 -37
-387 -361 -1704 -1678 -898 -897 -1637 -1642 -1641 -1656 -11 -31 -6 -67 13
-96 11 -17 249 -144 270 -144 4 0 28 -9 54 -21 l49 -20 -259 -259 c-157 -157
-261 -268 -265 -284 -14 -58 19 -105 127 -178 261 -177 598 -171 849 15 30 23
185 171 343 329 159 158 298 290 310 293 228 50 362 93 532 174 l120 56 537 0
538 0 181 -182 182 -181 2 -89 c3 -125 12 -167 52 -252 66 -139 212 -253 358
-280 89 -17 270 -14 305 4 48 25 54 47 53 192 -1 107 -5 144 -23 200 -57 178
-194 307 -370 349 -30 7 -96 13 -145 14 l-90 0 -108 108 c-59 59 -107 110
-107 112 0 3 314 5 697 5 688 -1 697 -1 727 20 40 26 55 79 35 121 -29 61 -8
59 -755 59 l-681 -1 96 56 c127 73 201 124 305 210 99 82 121 123 94 178 -15
29 -15 31 29 78 24 27 59 68 76 90 31 41 33 42 82 37 43 -4 54 -1 78 20 40 36
47 89 17 129 l-22 31 55 111 55 111 41 0 c23 1 48 8 59 19 38 34 106 271 133
461 6 44 13 213 15 375 2 162 4 298 4 303 0 4 54 7 120 7 147 0 182 11 200 65
6 20 9 48 5 62 -3 15 -76 97 -171 192 -158 159 -184 194 -184 248 0 29 -64
171 -106 236 -109 169 -295 310 -469 356 -45 12 -213 39 -217 36z"/>
</g>
</svg>
